<svg width="16" height="18" viewBox="0 0 16 18" fill="none" xmlns="http://www.w3.org/2000/svg">
<path d="M1.7 4.63635H3.1H14.3" stroke="#2D9CDB" stroke-width="1.5" stroke-linecap="round" stroke-linejoin="round"/>
<path d="M5.2 4.63639V3.18184C5.2 2.79607 5.3475 2.4261 5.61005 2.15332C5.8726 1.88054 6.2287 1.72729 6.6 1.72729H9.4C9.7713 1.72729 10.1274 1.88054 10.3899 2.15332C10.6525 2.4261 10.8 2.79607 10.8 3.18184V4.63639M12.9 4.63639V14.8182C12.9 15.204 12.7525 15.5739 12.4899 15.8467C12.2274 16.1195 11.8713 16.2727 11.5 16.2727H4.5C4.1287 16.2727 3.7726 16.1195 3.51005 15.8467C3.2475 15.5739 3.1 15.204 3.1 14.8182V4.63639H12.9Z" stroke="#2D9CDB" stroke-width="1.5" stroke-linecap="round" stroke-linejoin="round"/>
<path d="M6.6 8.27271V12.6363" stroke="#2D9CDB" stroke-width="1.5" stroke-linecap="round" stroke-linejoin="round"/>
<path d="M9.4 8.27271V12.6363" stroke="#2D9CDB" stroke-width="1.5" stroke-linecap="round" stroke-linejoin="round"/>
</svg>
