<svg width="17" height="17" viewBox="0 0 17 17" fill="none" xmlns="http://www.w3.org/2000/svg">
<path d="M10.7816 4.50574H10.7912" stroke="#4F4F4F" stroke-width="1.5" stroke-linecap="round" stroke-linejoin="round"/>
<path d="M12.5747 0.919556H3.60921C2.12376 0.919556 0.919556 2.12376 0.919556 3.60921V12.5747C0.919556 14.0602 2.12376 15.2644 3.60921 15.2644H12.5747C14.0602 15.2644 15.2644 14.0602 15.2644 12.5747V3.60921C15.2644 2.12376 14.0602 0.919556 12.5747 0.919556Z" stroke="#4F4F4F" stroke-width="1.5" stroke-linecap="round" stroke-linejoin="round"/>
<path d="M0.919556 10.7816L4.50576 7.19542C4.91464 6.80198 5.37846 6.59485 5.85059 6.59485C6.32272 6.59485 6.78654 6.80198 7.19542 7.19542L11.6782 11.6782" stroke="#4F4F4F" stroke-width="1.5" stroke-linecap="round" stroke-linejoin="round"/>
<path d="M9.88507 9.88507L10.7816 8.98852C11.1905 8.59507 11.6543 8.38794 12.1265 8.38794C12.5986 8.38794 13.0624 8.59507 13.4713 8.98852L15.2644 10.7816" stroke="#4F4F4F" stroke-width="1.5" stroke-linecap="round" stroke-linejoin="round"/>
</svg>
