<svg width="92" height="48" viewBox="0 0 92 48" fill="none" xmlns="http://www.w3.org/2000/svg">
<path d="M28.2345 38.4803H23.2846L8.87032 20.1457V38.4803H3.12837V10.3645H8.07833L22.4926 28.6992V10.3645H28.2345V38.4803ZM49.9856 35.9459C47.9528 37.9259 45.4976 38.9159 42.62 38.9159C39.7425 38.9159 37.2873 37.9259 35.2545 35.9459C33.2217 33.9395 32.2053 31.4843 32.2053 28.5804C32.2053 25.7028 33.2217 23.2608 35.2545 21.2544C37.2873 19.2481 39.7425 18.2449 42.62 18.2449C45.4976 18.2449 47.9528 19.2481 49.9856 21.2544C52.0184 23.2608 53.0347 25.7028 53.0347 28.5804C53.0347 31.4843 52.0184 33.9395 49.9856 35.9459ZM42.62 33.8471C44.0192 33.8471 45.1808 33.3587 46.1048 32.3819C47.0552 31.3787 47.5304 30.1116 47.5304 28.5804C47.5304 27.0492 47.0552 25.7952 46.1048 24.8184C45.1808 23.8152 44.0192 23.3136 42.62 23.3136C41.1945 23.3136 40.0065 23.8152 39.0561 24.8184C38.1321 25.7952 37.6701 27.0492 37.6701 28.5804C37.6701 30.1116 38.1321 31.3787 39.0561 32.3819C40.0065 33.3587 41.1945 33.8471 42.62 33.8471ZM68.1142 38.9159C66.847 38.9159 65.6986 38.6519 64.669 38.1239C63.6394 37.5959 62.8738 36.9755 62.3722 36.2627V38.4803H56.9471V8.78055H62.3722V20.898C62.8738 20.1853 63.6394 19.5649 64.669 19.0369C65.6986 18.5089 66.847 18.2449 68.1142 18.2449C70.7277 18.2449 72.9321 19.2613 74.7273 21.294C76.5225 23.3268 77.4201 25.7556 77.4201 28.5804C77.4201 31.4051 76.5225 33.8339 74.7273 35.8667C72.9321 37.8995 70.7277 38.9159 68.1142 38.9159ZM63.283 32.4611C64.207 33.4643 65.4214 33.9659 66.9262 33.9659C68.431 33.9659 69.6322 33.4643 70.5297 32.4611C71.4537 31.4579 71.9157 30.1644 71.9157 28.5804C71.9157 26.9964 71.4537 25.7028 70.5297 24.6996C69.6322 23.6964 68.431 23.1948 66.9262 23.1948C65.4214 23.1948 64.207 23.6964 63.283 24.6996C62.3854 25.7028 61.9366 26.9964 61.9366 28.5804C61.9366 30.1644 62.3854 31.4579 63.283 32.4611ZM81.3875 38.4803V18.6805H86.8126V38.4803H81.3875Z" fill="#1A1D1C"/>
<path d="M84.0472 5.08778C85.5194 4.69329 86.8666 6.0405 86.4721 7.51275L85.5845 10.8253C85.19 12.2976 83.3497 12.7907 82.2719 11.7129L79.847 9.28795C78.7692 8.21019 79.2623 6.36987 80.7346 5.97538L84.0472 5.08778Z" fill="#00BBA4"/>
</svg>
