<svg width="25" height="28" viewBox="0 0 25 28" fill="none" xmlns="http://www.w3.org/2000/svg">
<g filter="url(#filter0_d_17_228)">
<path d="M17.3572 6.66669C17.3572 5.3406 16.8454 4.06883 15.9345 3.13115C15.0236 2.19347 13.7882 1.66669 12.5 1.66669C11.2118 1.66669 9.97638 2.19347 9.06549 3.13115C8.1546 4.06883 7.64287 5.3406 7.64287 6.66669C7.64287 12.5 5.21429 14.1667 5.21429 14.1667H19.7857C19.7857 14.1667 17.3572 12.5 17.3572 6.66669Z" stroke="#828282" stroke-width="1.5" stroke-linecap="round" stroke-linejoin="round"/>
<path d="M13.9005 17.5C13.7582 17.7526 13.5539 17.9622 13.3081 18.1079C13.0623 18.2537 12.7837 18.3304 12.5 18.3304C12.2164 18.3304 11.9377 18.2537 11.6919 18.1079C11.4462 17.9622 11.2419 17.7526 11.0995 17.5" stroke="#828282" stroke-width="1.5" stroke-linecap="round" stroke-linejoin="round"/>
</g>
<defs>
<filter id="filter0_d_17_228" x="0" y="0" width="25" height="28" filterUnits="userSpaceOnUse" color-interpolation-filters="sRGB">
<feFlood flood-opacity="0" result="BackgroundImageFix"/>
<feColorMatrix in="SourceAlpha" type="matrix" values="0 0 0 0 0 0 0 0 0 0 0 0 0 0 0 0 0 0 127 0" result="hardAlpha"/>
<feOffset dy="4"/>
<feGaussianBlur stdDeviation="2"/>
<feComposite in2="hardAlpha" operator="out"/>
<feColorMatrix type="matrix" values="0 0 0 0 0 0 0 0 0 0 0 0 0 0 0 0 0 0 0.25 0"/>
<feBlend mode="normal" in2="BackgroundImageFix" result="effect1_dropShadow_17_228"/>
<feBlend mode="normal" in="SourceGraphic" in2="effect1_dropShadow_17_228" result="shape"/>
</filter>
</defs>
</svg>
