<svg width="18" height="18" viewBox="0 0 18 18" fill="none" xmlns="http://www.w3.org/2000/svg">
<path d="M9 11C10.1046 11 11 10.1046 11 9C11 7.89543 10.1046 7 9 7C7.89543 7 7 7.89543 7 9C7 10.1046 7.89543 11 9 11Z" stroke="#4F4F4F" stroke-width="1.5" stroke-linecap="round" stroke-linejoin="round"/>
<path d="M13.9334 11C13.8446 11.2011 13.8181 11.4241 13.8573 11.6404C13.8966 11.8566 13.9997 12.0562 14.1534 12.2133L14.1934 12.2533C14.3173 12.3772 14.4157 12.5242 14.4828 12.6861C14.5499 12.8479 14.5844 13.0214 14.5844 13.1967C14.5844 13.3719 14.5499 13.5454 14.4828 13.7072C14.4157 13.8691 14.3173 14.0162 14.1934 14.14C14.0695 14.264 13.9225 14.3623 13.7606 14.4294C13.5987 14.4965 13.4252 14.531 13.25 14.531C13.0748 14.531 12.9013 14.4965 12.7394 14.4294C12.5776 14.3623 12.4305 14.264 12.3067 14.14L12.2667 14.1C12.1096 13.9463 11.91 13.8432 11.6937 13.804C11.4775 13.7648 11.2544 13.7912 11.0534 13.88C10.8562 13.9645 10.688 14.1048 10.5696 14.2837C10.4511 14.4625 10.3875 14.6721 10.3867 14.8867V15C10.3867 15.3536 10.2462 15.6927 9.99616 15.9428C9.74611 16.1928 9.40697 16.3333 9.05335 16.3333C8.69973 16.3333 8.36059 16.1928 8.11054 15.9428C7.8605 15.6927 7.72002 15.3536 7.72002 15V14.94C7.71486 14.7193 7.64343 14.5053 7.51503 14.3258C7.38662 14.1463 7.20718 14.0095 7.00002 13.9333C6.79894 13.8446 6.57589 13.8181 6.35963 13.8573C6.14336 13.8965 5.94381 13.9996 5.78669 14.1533L5.74669 14.1933C5.62286 14.3173 5.4758 14.4156 5.31394 14.4827C5.15208 14.5498 4.97857 14.5844 4.80335 14.5844C4.62813 14.5844 4.45463 14.5498 4.29277 14.4827C4.1309 14.4156 3.98385 14.3173 3.86002 14.1933C3.73605 14.0695 3.63771 13.9224 3.57061 13.7606C3.50351 13.5987 3.46897 13.4252 3.46897 13.25C3.46897 13.0748 3.50351 12.9013 3.57061 12.7394C3.63771 12.5775 3.73605 12.4305 3.86002 12.3067L3.90002 12.2667C4.05371 12.1095 4.15681 11.91 4.19602 11.6937C4.23524 11.4775 4.20876 11.2544 4.12002 11.0533C4.03551 10.8561 3.89519 10.688 3.71633 10.5695C3.53747 10.4511 3.32788 10.3875 3.11335 10.3867H3.00002C2.6464 10.3867 2.30726 10.2462 2.05721 9.99613C1.80716 9.74608 1.66669 9.40694 1.66669 9.05332C1.66669 8.6997 1.80716 8.36056 2.05721 8.11051C2.30726 7.86046 2.6464 7.71999 3.00002 7.71999H3.06002C3.28068 7.71483 3.49469 7.6434 3.67422 7.515C3.85375 7.38659 3.9905 7.20715 4.06669 6.99999C4.15543 6.79891 4.1819 6.57586 4.14269 6.3596C4.10348 6.14333 4.00038 5.94378 3.84669 5.78666L3.80669 5.74666C3.68272 5.62283 3.58437 5.47577 3.51727 5.31391C3.45017 5.15205 3.41564 4.97854 3.41564 4.80332C3.41564 4.6281 3.45017 4.4546 3.51727 4.29274C3.58437 4.13087 3.68272 3.98382 3.80669 3.85999C3.93052 3.73602 4.07757 3.63768 4.23943 3.57058C4.4013 3.50348 4.5748 3.46894 4.75002 3.46894C4.92524 3.46894 5.09874 3.50348 5.26061 3.57058C5.42247 3.63768 5.56952 3.73602 5.69335 3.85999L5.73335 3.89999C5.89047 4.05368 6.09003 4.15678 6.30629 4.19599C6.52256 4.23521 6.74561 4.20873 6.94669 4.11999H7.00002C7.1972 4.03548 7.36536 3.89516 7.48381 3.7163C7.60227 3.53744 7.66583 3.32785 7.66669 3.11332V2.99999C7.66669 2.64637 7.80716 2.30723 8.05721 2.05718C8.30726 1.80713 8.6464 1.66666 9.00002 1.66666C9.35364 1.66666 9.69278 1.80713 9.94283 2.05718C10.1929 2.30723 10.3334 2.64637 10.3334 2.99999V3.05999C10.3342 3.27451 10.3978 3.48411 10.5162 3.66297C10.6347 3.84183 10.8028 3.98215 11 4.06666C11.2011 4.1554 11.4241 4.18187 11.6404 4.14266C11.8567 4.10345 12.0562 4.00035 12.2134 3.84666L12.2534 3.80666C12.3772 3.68269 12.5242 3.58434 12.6861 3.51724C12.848 3.45014 13.0215 3.41561 13.1967 3.41561C13.3719 3.41561 13.5454 3.45014 13.7073 3.51724C13.8691 3.58434 14.0162 3.68269 14.14 3.80666C14.264 3.93049 14.3623 4.07754 14.4294 4.2394C14.4965 4.40127 14.5311 4.57477 14.5311 4.74999C14.5311 4.92521 14.4965 5.09871 14.4294 5.26058C14.3623 5.42244 14.264 5.56949 14.14 5.69332L14.1 5.73332C13.9463 5.89044 13.8432 6.09 13.804 6.30626C13.7648 6.52253 13.7913 6.74558 13.88 6.94666V6.99999C13.9645 7.19717 14.1048 7.36533 14.2837 7.48378C14.4626 7.60223 14.6722 7.6658 14.8867 7.66666H15C15.3536 7.66666 15.6928 7.80713 15.9428 8.05718C16.1929 8.30723 16.3334 8.64637 16.3334 8.99999C16.3334 9.35361 16.1929 9.69275 15.9428 9.9428C15.6928 10.1928 15.3536 10.3333 15 10.3333H14.94C14.7255 10.3342 14.5159 10.3977 14.337 10.5162C14.1582 10.6346 14.0179 10.8028 13.9334 11V11Z" stroke="#4F4F4F" stroke-width="1.5" stroke-linecap="round" stroke-linejoin="round"/>
</svg>
