<svg width="55" height="24" viewBox="0 0 55 24" fill="none" xmlns="http://www.w3.org/2000/svg">
<path d="M15.424 23.7326H12.383L3.52758 12.4686V23.7326H0V6.45958H3.04102L11.8965 17.7235V6.45958H15.424V23.7326Z" fill="#1A1D1C"/>
<path d="M28.7869 22.1756C27.538 23.392 26.0297 24.0002 24.2618 24.0002C22.494 24.0002 20.9856 23.392 19.7368 22.1756C18.4879 20.9429 17.8635 19.4346 17.8635 17.6505C17.8635 15.8827 18.4879 14.3824 19.7368 13.1498C20.9856 11.9172 22.494 11.3009 24.2618 11.3009C26.0297 11.3009 27.538 11.9172 28.7869 13.1498C30.0357 14.3824 30.6601 15.8827 30.6601 17.6505C30.6601 19.4346 30.0357 20.9429 28.7869 22.1756ZM24.2618 20.8862C25.1214 20.8862 25.835 20.5861 26.4027 19.986C26.9866 19.3697 27.2785 18.5912 27.2785 17.6505C27.2785 16.7098 26.9866 15.9394 26.4027 15.3394C25.835 14.723 25.1214 14.4149 24.2618 14.4149C23.386 14.4149 22.6562 14.723 22.0723 15.3394C21.5046 15.9394 21.2208 16.7098 21.2208 17.6505C21.2208 18.5912 21.5046 19.3697 22.0723 19.986C22.6562 20.5861 23.386 20.8862 24.2618 20.8862Z" fill="#1A1D1C"/>
<path d="M39.9242 24.0002C39.1457 24.0002 38.4402 23.838 37.8077 23.5136C37.1751 23.1892 36.7048 22.8081 36.3966 22.3702V23.7326H33.0637V5.48645H36.3966V12.9309C36.7048 12.493 37.1751 12.1118 37.8077 11.7874C38.4402 11.4631 39.1457 11.3009 39.9242 11.3009C41.5299 11.3009 42.8841 11.9253 43.987 13.1741C45.0899 14.423 45.6413 15.9151 45.6413 17.6505C45.6413 19.3859 45.0899 20.8781 43.987 22.1269C42.8841 23.3758 41.5299 24.0002 39.9242 24.0002ZM36.9562 20.0347C37.5238 20.651 38.2699 20.9592 39.1944 20.9592C40.1188 20.9592 40.8568 20.651 41.4082 20.0347C41.9759 19.4184 42.2597 18.6237 42.2597 17.6505C42.2597 16.6774 41.9759 15.8827 41.4082 15.2664C40.8568 14.6501 40.1188 14.3419 39.1944 14.3419C38.2699 14.3419 37.5238 14.6501 36.9562 15.2664C36.4047 15.8827 36.129 16.6774 36.129 17.6505C36.129 18.6237 36.4047 19.4184 36.9562 20.0347Z" fill="#1A1D1C"/>
<path d="M48.0787 23.7326V11.5685H51.4116V23.7326H48.0787Z" fill="#1A1D1C"/>
<path d="M49.1425 3.27838C50.3002 2.96816 51.3597 4.02757 51.0494 5.18531L50.8095 6.08073C50.4993 7.23848 49.0521 7.62625 48.2046 6.77872L47.5491 6.12323C46.7016 5.2757 47.0893 3.82852 48.2471 3.5183L49.1425 3.27838Z" fill="#00BBA4"/>
</svg>
