<svg width="17" height="20" viewBox="0 0 17 20" fill="none" xmlns="http://www.w3.org/2000/svg">
<path d="M13.3571 6.66663C13.3571 5.34054 12.8454 4.06877 11.9345 3.13109C11.0236 2.19341 9.7882 1.66663 8.5 1.66663C7.21181 1.66663 5.97637 2.19341 5.06548 3.13109C4.15459 4.06877 3.64286 5.34054 3.64286 6.66663C3.64286 12.5 1.21429 14.1666 1.21429 14.1666H15.7857C15.7857 14.1666 13.3571 12.5 13.3571 6.66663Z" stroke="#828282" stroke-width="1.5" stroke-linecap="round" stroke-linejoin="round"/>
<path d="M9.90049 17.5C9.75817 17.7526 9.55389 17.9622 9.3081 18.1079C9.06232 18.2537 8.78366 18.3304 8.50002 18.3304C8.21638 18.3304 7.93771 18.2537 7.69193 18.1079C7.44614 17.9622 7.24186 17.7526 7.09954 17.5" stroke="#828282" stroke-width="1.5" stroke-linecap="round" stroke-linejoin="round"/>
</svg>
