<svg width="36" height="36" viewBox="0 0 36 36" fill="none" xmlns="http://www.w3.org/2000/svg">
<g filter="url(#filter0_d_3_221)">
<path d="M14.5753 8.00079C14.8036 8.00061 15.0303 8.03787 15.2465 8.11107L15.5734 8.22135C17.8264 8.97624 19.9167 10.1485 21.7349 11.6768L22.0077 11.8931C22.315 12.1506 22.562 12.4723 22.7315 12.8354C22.901 13.1985 22.9888 13.5943 22.9888 13.9949C22.9888 14.3955 22.901 14.7913 22.7315 15.1544C22.562 15.5175 22.315 15.8392 22.0077 16.0967L21.7349 16.3259C19.9164 17.8549 17.8263 19.0286 15.5734 19.7857L15.2573 19.8939C15.0411 19.9671 14.8144 20.0043 14.5861 20.0041C14.1004 20.0038 13.6296 19.8363 13.2531 19.5299C12.8765 19.2235 12.6171 18.7969 12.5186 18.3218L12.419 17.8461C11.8929 15.3121 11.8929 12.6972 12.419 10.1632L12.5186 9.68744C12.6158 9.21341 12.8733 8.78716 13.2477 8.48011C13.6221 8.17305 14.0908 8.00383 14.5753 8.00079V8.00079ZM14.5753 0C12.2478 0.000642902 9.99155 0.802148 8.18636 2.2696C6.38117 3.73706 5.13725 5.78087 4.66398 8.05701L4.5644 8.53274C3.81187 12.1368 3.81187 15.8573 4.5644 19.4614L4.66398 19.9371C4.95385 21.3366 5.53744 22.6588 6.37627 23.8165C7.2151 24.9743 8.29013 25.9413 9.53045 26.6538C10.7708 27.3663 12.1482 27.808 13.572 27.95C14.9957 28.0919 16.4335 27.9308 17.7903 27.4773L18.1172 27.367C21.3236 26.2974 24.2985 24.6319 26.8854 22.4584L27.1647 22.2292C28.367 21.2205 29.3337 19.9611 29.9969 18.5395C30.6602 17.118 31.0038 15.5686 31.0038 14.0003C31.0038 12.432 30.6602 10.8826 29.9969 9.46107C29.3337 8.0395 28.367 6.78014 27.1647 5.77138L26.8898 5.54217C24.3029 3.36867 21.3279 1.70323 18.1216 0.633576L17.7903 0.523295C16.7538 0.177189 15.6682 0.00048357 14.5753 0V0Z" fill="#00BBA4"/>
</g>
<defs>
<filter id="filter0_d_3_221" x="0" y="0" width="35.0038" height="36" filterUnits="userSpaceOnUse" color-interpolation-filters="sRGB">
<feFlood flood-opacity="0" result="BackgroundImageFix"/>
<feColorMatrix in="SourceAlpha" type="matrix" values="0 0 0 0 0 0 0 0 0 0 0 0 0 0 0 0 0 0 127 0" result="hardAlpha"/>
<feOffset dy="4"/>
<feGaussianBlur stdDeviation="2"/>
<feComposite in2="hardAlpha" operator="out"/>
<feColorMatrix type="matrix" values="0 0 0 0 0 0 0 0 0 0 0 0 0 0 0 0 0 0 0.25 0"/>
<feBlend mode="normal" in2="BackgroundImageFix" result="effect1_dropShadow_3_221"/>
<feBlend mode="normal" in="SourceGraphic" in2="effect1_dropShadow_3_221" result="shape"/>
</filter>
</defs>
</svg>
